<?xml version="1.0" encoding="utf-8"?>
<svg width="512px" height="512px" viewBox="0 0 512 512" version="1.1" xmlns:xlink="http://www.w3.org/1999/xlink" xmlns="http://www.w3.org/2000/svg">
  <g id="camin_logo">
    <path d="M260.581 0C116.666 0 0 114.615 0 256C0 397.385 116.666 512 260.581 512C379.037 512 479.032 434.35 510.704 328.035C486.017 335.306 453.305 335.118 416.975 334.909C410.784 334.874 404.489 334.838 398.111 334.838C391.723 334.838 385.429 334.874 379.249 334.91C300.812 335.362 240.676 335.708 240.676 260.429C240.676 179.218 310.662 176.277 398.11 176.277C442.583 176.277 483.008 177.038 512 188.467C481.841 79.8497 380.703 0 260.581 0Z" id="Oval-Subtract" fill="#FFFFFF" fill-rule="evenodd" stroke="none" />
  </g>
</svg>